<?xml version="1.0" encoding="UTF-8" standalone="no"?>


<svg xmlns="http://www.w3.org/2000/svg" id="compstak" width="27mm" viewBox="0 2 126.7 28" xml:space="preserve">
    <style type="text/css"> .st0{fill:#FFFFFF;} .st1{enable-background:new ;} .st2{font-family:'Gotham-Medium';} .st3{font-size:16px;} </style>
    <g>
        <g transform="translate(-134.000000, -30.000000)">
            <g>
                <g transform="translate(132.000000, 30.000000)">
                    <path transform="scale(0.85 0.85),translate(5 3)" class="st0" d="M12.1,22.4l12.1-7v-2.9l-12.1,7V22.4z M12.1,0L0,7v14l12.1,7l12.1-7v-2.9l-12.1,7 l-9.6-5.6V8.4l9.6-5.6l9.6,5.6L12.1,14v2.9l12.1-7V7L12.1,0z"/>
                    <g class="st1">
                        <path class="st0" d="M36,14.4L36,14.4c0-3.2,2.4-5.8,5.8-5.8c2.1,0,3.3,0.7,4.4,1.7l-1.3,1.5c-0.9-0.8-1.9-1.4-3.1-1.4 c-2.1,0-3.7,1.8-3.7,4v0c0,2.2,1.6,4,3.7,4c1.4,0,2.3-0.5,3.2-1.4l1.3,1.3c-1.2,1.2-2.4,2-4.5,2C38.5,20.2,36,17.6,36,14.4z"></path>
                        <path class="st0" d="M47.5,14.4L47.5,14.4c0-3.2,2.4-5.8,5.9-5.8s5.8,2.6,5.8,5.8v0c0,3.2-2.4,5.8-5.9,5.8S47.5,17.6,47.5,14.4 z M57.2,14.4L57.2,14.4c0-2.2-1.6-4-3.8-4c-2.2,0-3.8,1.8-3.8,4v0c0,2.2,1.6,4,3.8,4C55.6,18.4,57.2,16.6,57.2,14.4z"></path>
                        <path class="st0" d="M61.3,8.8h2.1l3.4,5.3l3.4-5.3h2.1V20h-2v-8l-3.5,5.3h-0.1L63.2,12v8h-1.9V8.8z"></path>
                        <path class="st0" d="M75.2,8.8h4.4c2.6,0,4.3,1.5,4.3,3.7v0c0,2.5-2,3.8-4.5,3.8h-2.2V20h-2V8.8z M79.4,14.6 c1.5,0,2.4-0.8,2.4-2v0c0-1.3-0.9-2-2.4-2h-2.3v4H79.4z"></path>
                        <path class="st0" d="M85.1,18.4l1.2-1.4c1.1,0.9,2.2,1.5,3.5,1.5c1.2,0,2-0.6,2-1.4v0c0-0.8-0.4-1.2-2.5-1.7 c-2.4-0.6-3.7-1.3-3.7-3.3v0c0-1.9,1.6-3.2,3.8-3.2c1.6,0,2.9,0.5,4.1,1.4l-1.1,1.5c-1-0.8-2-1.2-3-1.2c-1.2,0-1.8,0.6-1.8,1.3 v0c0,0.9,0.5,1.2,2.7,1.8c2.4,0.6,3.6,1.4,3.6,3.3v0c0,2.1-1.6,3.3-4,3.3C88.1,20.2,86.5,19.6,85.1,18.4z"></path>
                        <path class="st0" d="M98.3,10.6h-3.6V8.8h9.1v1.8h-3.6V20h-2V10.6z"></path>
                        <path class="st0" d="M108.1,8.7h1.8l4.9,11.3h-2.1l-1.1-2.7h-5.3l-1.2,2.7h-2L108.1,8.7z M110.9,15.5l-1.9-4.5l-1.9,4.5H110.9z "></path>
                        <path class="st0" d="M116.8,8.8h2v5.6l5.3-5.6h2.4l-4.7,4.8l4.9,6.4h-2.4l-3.8-5l-1.7,1.8V20h-2V8.8z"></path>
                    </g>
                    <text transform="matrix(1 0 0 1 116.3077 20)" class="st0 st2 st3"></text>
                </g>
            </g>
        </g>
    </g>
</svg>
