<?xml version="1.0" encoding="UTF-8" standalone="no"?>

<svg xmlns="http://www.w3.org/2000/svg" id="deployeth" width="30mm" viewBox="0 10 715 130">
    <title>deployeth</title>
    <g>
        <g>
            <path transform="translate(20, 0)" fill="#042024" fill-rule="evenodd" d="M95.41,39.34V97.13H73.26a35.67,35.67,0,0,1-9-1.16,50,50,0,0,1-6,5.22,42.3,42.3,0,0,0,13.38,2.72v0h30.67V35.79L51.11,0,0,35.79v68.15H30.67v0a42.34,42.34,0,0,0,20.44-6.17h0l.07,0,.42-.27.12-.08.47-.3.13-.09.43-.29.08-.05.45-.31.14-.1.44-.31.12-.09.37-.28.12-.09,0,0h0A42.6,42.6,0,0,0,51.11,25a42.6,42.6,0,0,0-11,63.13,28.31,28.31,0,0,0,6-3.41,35.78,35.78,0,0,1,5-51.42,35.78,35.78,0,0,1,3.41,53.14h0A34.76,34.76,0,0,1,51,89.55h0l0,0-.3.23-.05,0-.29.22-.09.06-.24.18-.12.08-.21.15-.18.12h0l0,0-.12.09-.25.17,0,0,0,0c-.42.29-.85.56-1.28.83h0c-.85.52-1.72,1-2.62,1.46h0A35.6,35.6,0,0,1,29,97.13H6.81V39.34l44.3-31Z" />
          <path transform="scale(0.9 0.9),translate(70 10)" fill="#2d7f6f" d="M484.28,104.72v27h6.65V104.74c16.14-1.24,27-12,27-29.43V36.69h-6.64V75.18c0,14.56-8.61,22.64-22.12,23.14v0c-.44,0-.88,0-1.32,0h-.4c-.45,0-.89,0-1.32,0v0C472.63,97.82,464,89.75,464,75.18V36.69h-6.64V75.31c0,17.4,10.82,28.13,26.9,29.41ZM160,42.12c15.45,0,27.38,11.38,27.38,28S175.67,98.35,160,98.35c-15,0-27.37-9.49-27.37-28.05,0-18.84,12.33-28.19,27.37-28.19ZM187.46,8.78V51.47C182,40.62,171.2,35.74,159.68,35.74c-18.7,0-33.6,12.47-33.6,34.56s14.77,34.55,33.47,34.55c11.38,0,22.36-5.69,27.91-15.85v14.77H194v-95Zm51.87,95.94c10.71,0,22.36-4.33,28.86-12.87l-4.74-3.79c-5,6.64-15.31,10.16-24.12,10.16-13.82,0-25.88-9.08-27.24-24.8h60.3c2.58-26.16-14.23-37.67-33.07-37.67s-34,14.5-34,34.56c0,21.28,15.18,34.41,34,34.41ZM212.09,67.59c1.49-16.4,13.42-25.75,27.24-25.75,16.12,0,27,9.21,27.1,25.75Zm106.07,31c-15.31,0-27.1-11.79-27.1-28.19s11.52-28.19,27.1-28.19c15.18,0,27.37,9.21,27.37,28.05s-12.2,28.32-27.37,28.32Zm-27.64,33.06V88.32C296.22,99.44,306.79,105,318.17,105c18.84,0,34-12.19,34-34.69,0-21.55-14.36-33.75-32.52-34.42-13,0-23.72,6.64-29,16.81V36.83h-6.51v94.86ZM363,8.78v95h6.64v-95Zm50.65,95.94c18.84,0,34-13,34-34.28s-15.18-34.83-34-34.83-34,13.56-34,34.83,15.18,34.28,34,34.28Zm0-6.5c-15.18,0-27.51-10.43-27.51-27.78s12.33-28.6,27.51-28.6,27.51,11.25,27.51,28.6-12.33,27.78-27.51,27.78Zm146.56,6.5c10.71,0,22.36-4.33,28.86-12.87l-4.74-3.79c-5,6.64-15.31,10.16-24.12,10.16-13.82,0-25.88-9.08-27.24-24.8h60.3c2.58-26.16-14.23-37.67-33.07-37.67s-34,14.5-34,34.56c0,21.28,15.18,34.41,34,34.41ZM533,67.59c1.49-16.4,13.42-25.75,27.24-25.75,16.12,0,27,9.21,27.1,25.75Zm78-50.27V36.83H596.76v5.56H611V83.18c0,13.15,4.61,21.54,18.84,21.54a29.13,29.13,0,0,0,12.6-3.39l-2.3-5.42a24.79,24.79,0,0,1-10.3,2.71c-10.43,0-12.33-6.37-12.33-15.45V42.39h22.76V36.83H617.5V16.64Zm39.13-8.54v95h6.65V67c0-14,9.75-24.79,23.84-24.79,15,0,21.55,9.35,21.55,23.17v38.35h6.5V65.42c0-17.48-9.35-29.54-28.05-29.54-9.35.14-18.7,3.8-24.12,13.42V8.78Z" />
        </g>
    </g>
</svg>
