<?xml version="1.0" encoding="UTF-8" standalone="no"?>

<svg xmlns="http://www.w3.org/2000/svg" id="jwplayer" viewBox="0 0 110 38" width="30mm">
    <title>JW Player</title>
    <path transform="scale(0.6 0.6),translate(-10 11)" fill="#ff0046" d="M3.213,18.969c-0.091.3-.229,0.295-0.307-0.006l-0.147-.53s-0.2-.767-0.54-1.667a2.585,2.585,0,0,0-.4-0.83,1.049,1.049,0,0,0-1.125-.283,1.049,1.049,0,0,0-.681.857,4.076,4.076,0,0,0,.088,1,36.034,36.034,0,0,0,1.307,5.812,1.685,1.685,0,0,0,2.287.838,4.218,4.218,0,0,0,1.55-2.272C5.668,20.871,7.8,14.975,7.8,14.975c0.212-.585.376-0.555,0.364,0.067,0,0-.105,5.774-0.124,8.407a15.949,15.949,0,0,0,.349,3.692,3.066,3.066,0,0,0,1.039,1.612,2.506,2.506,0,0,0,1.787.49,2.855,2.855,0,0,0,.895-0.3,3.442,3.442,0,0,0,1.015-.9A15.754,15.754,0,0,0,14.7,25.384c1.035-2.035,3.7-8.314,3.7-8.314,0.243-.573.426-0.533,0.406,0.089,0,0-.327,10.565-0.34,14.607a8.05,8.05,0,0,0,.554,2.937,3.607,3.607,0,0,0,1.828,2.024,3.211,3.211,0,0,0,2.9-.159A4.667,4.667,0,0,0,25.355,34.9a17.9,17.9,0,0,0,1.359-2.911c0.806-2.077,1.47-4.209,2.128-6.337s6.309-22.3,6.664-24.024a1.733,1.733,0,0,0,.051-0.589A1.2,1.2,0,0,0,34.9.11a1.27,1.27,0,0,0-1.665.6c-0.31.627-8.031,19.344-8.031,19.344-0.237.575-.43,0.537-0.429-0.085,0,0,.014-6.5.046-11.892,0.017-2.923-1.424-4.556-3.437-4.882a3.772,3.772,0,0,0-2.671.594,5.879,5.879,0,0,0-1.9,2.244c-0.621,1.183-4.388,12.225-4.388,12.225-0.2.589-.377,0.562-0.391-0.06,0,0-.11-4.747-0.218-5.87-0.166-1.714-.557-4.547-2.783-4.681C6.937,7.52,6.009,10.08,5.471,11.674c-0.353,1.045-2.1,6.771-2.1,6.771l-0.16.523" />
    <path transform="translate(-20 0)" d="M41.672,20.924a3.261,3.261,0,0,0,1.914.686c1.021,0,1.372-.574,1.372-1.946v-6.14h2.058V19.9c0,2.488-1.164,3.573-3.254,3.573a4.241,4.241,0,0,1-2.089-.558V20.924" />
    <path transform="translate(-20 0)" d="M55.334,13.524l1.69,6.587,1.611-6.587h2.009l-2.552,9.792H56.227L54.5,16.857l-1.722,6.459H50.916l-2.551-9.792h2.057l1.6,6.587,1.722-6.587h1.595" />
    <path transform="translate(-20 0)" d="M65.805,14.625H63.461v3.652h2.344a1.837,1.837,0,1,0,0-3.652m-2.344,4.769v3.923H62.2V13.524h3.62c1.978,0,3.269,1,3.269,2.934,0,1.914-1.292,2.935-3.269,2.935h-2.36"/>
    <path transform="translate(-20 0)" d="M70.881,13.524h1.26v8.66h4.992v1.132H70.881V13.524"/>
    <path transform="translate(-20 0)" d="M79.158,19.265h3.19l-1.595-4.178-1.595,4.178h0Zm2.2-5.741,3.828,9.792H83.911l-1.133-2.951H78.744l-1.116,2.951H76.351l3.828-9.792h1.18Z"/>
    <path transform="translate(-20 0)" d="M91.392,13.524h1.339l-3.572,5.757v4.035H87.915V19.281l-3.541-5.757h1.372l2.823,4.625,2.823-4.625"/>
    <path transform="translate(-20 0)" d="M99.988,13.524v1.116H95v3.094h4.53v1.116H95v3.333h4.992v1.132H93.753V13.524h6.236"/>
    <path transform="translate(-20 0)" d="M103.019,18.1h2.3c1.292,0,2.041-.654,2.041-1.738s-0.75-1.739-2.041-1.739h-2.3V18.1h0Zm0,1.069v4.146h-1.26V13.524h3.588c1.978,0,3.254.989,3.254,2.839a2.608,2.608,0,0,1-2.5,2.759l2.9,4.194h-1.435l-2.807-4.146h-1.738Z"/>
</svg>

